Coordinates
version=1
nRows=20
nColumns=38
inDegrees=no

Units are S.I. units (second, meters, Newtons, ...)
If the header above contains a line with 'inDegrees', this indicates whether rotational values are in degrees (yes) or radians (no).

endheader
time	pelvis_tilt	pelvis_list	pelvis_rotation	pelvis_tx	pelvis_ty	pelvis_tz	hip_flexion_r	hip_adduction_r	hip_rotation_r	knee_angle_r	ankle_angle_r	subtalar_angle_r	mtp_angle_r	hip_flexion_l	hip_adduction_l	hip_rotation_l	knee_angle_l	ankle_angle_l	subtalar_angle_l	mtp_angle_l	lumbar_extension	lumbar_bending	lumbar_rotation	arm_flex_r	arm_add_r	arm_rot_r	elbow_flex_r	pro_sup_r	wrist_flex_r	wrist_dev_r	arm_flex_l	arm_add_l	arm_rot_l	elbow_flex_l	pro_sup_l	wrist_flex_l	wrist_dev_l
1.91	2.81762	1.3751	-1.09749	0.532274	1.68682	0.923214	0.275118	-0.0469604	-0.275568	0.567407	-0.154042	0	0	-0.501519	-0.142306	-0.316771	0.301155	-0.12049	0	0	-0.264988	0.152971	-0.190547	-0.2604	-0.270324	-0.244146	0.749327	0.395364	0	0	0.129895	-0.323296	0.220605	0.877491	1.52114	0	0
1.92	2.79588	1.37546	-1.07449	0.533563	1.6993	0.923219	0.27041	-0.0395003	-0.279695	0.5681	-0.180177	0	0	-0.496731	-0.153432	-0.32272	0.33111	-0.134229	0	0	-0.258405	0.156718	-0.195025	-0.261247	-0.269738	-0.240634	0.744945	0.396407	0	0	0.118236	-0.319725	0.215013	0.874695	1.52338	0	0
1.93	2.77441	1.37516	-1.05232	0.535035	1.7119	0.923502	0.264349	-0.0311141	-0.283223	0.570148	-0.199655	0	0	-0.490502	-0.164872	-0.327109	0.364158	-0.150664	0	0	-0.251932	0.160108	-0.199005	-0.261666	-0.268954	-0.23779	0.739104	0.397524	0	0	0.106129	-0.31639	0.210293	0.870507	1.52415	0	0
1.94	2.75328	1.37449	-1.03144	0.536718	1.72461	0.923995	0.258213	-0.0219817	-0.282628	0.574388	-0.21415	0	0	-0.482238	-0.176522	-0.329313	0.401364	-0.170518	0	0	-0.245546	0.163022	-0.201906	-0.262197	-0.26764	-0.2356	0.732598	0.398858	0	0	0.09386	-0.31321	0.206511	0.864957	1.52377	0	0
1.95	2.73487	1.3726	-1.01531	0.538683	1.73725	0.924725	0.251185	-0.0115964	-0.275315	0.580201	-0.225344	0	0	-0.472865	-0.187938	-0.330098	0.443159	-0.193538	0	0	-0.241006	0.165404	-0.202215	-0.26325	-0.266207	-0.233332	0.726666	0.400826	0	0	0.0821898	-0.310566	0.204335	0.858616	1.52281	0	0
1.96	2.71757	1.36911	-1.00179	0.540921	1.74973	0.925702	0.2427	6.84744e-05	-0.264534	0.586558	-0.232095	0	0	-0.461952	-0.199981	-0.328945	0.490483	-0.218799	0	0	-0.23868	0.168073	-0.200117	-0.264953	-0.264662	-0.231334	0.721935	0.403301	0	0	0.0714575	-0.308318	0.203554	0.851559	1.52155	0	0
1.97	2.70025	1.36455	-0.989136	0.543267	1.76197	0.926893	0.233157	0.0121199	-0.255327	0.593366	-0.232682	0	0	-0.448425	-0.212595	-0.324568	0.543375	-0.245374	0	0	-0.238046	0.171405	-0.196708	-0.266914	-0.262618	-0.23072	0.719101	0.40429	0	0	0.0614746	-0.306491	0.203893	0.844128	1.51881	0	0
1.98	2.68313	1.35919	-0.977068	0.545568	1.7739	0.928239	0.222184	0.0239612	-0.249712	0.598641	-0.23147	0	0	-0.431853	-0.225399	-0.316192	0.601211	-0.272574	0	0	-0.238982	0.175618	-0.192282	-0.269569	-0.260847	-0.230937	0.718551	0.404855	0	0	0.0525316	-0.304672	0.205245	0.836124	1.51642	0	0
1.99	2.66714	1.35308	-0.966183	0.547752	1.78551	0.929629	0.209104	0.0353276	-0.247674	0.601532	-0.230007	0	0	-0.4125	-0.237876	-0.303966	0.662541	-0.300927	0	0	-0.241362	0.180696	-0.187377	-0.272562	-0.259202	-0.233545	0.720638	0.403551	0	0	0.0442072	-0.302963	0.207083	0.828426	1.51406	0	0
2	2.65312	1.34684	-0.956341	0.549744	1.79684	0.93094	0.193696	0.0455152	-0.250511	0.602814	-0.2262	0	0	-0.390182	-0.249605	-0.288031	0.72601	-0.32928	0	0	-0.244358	0.186177	-0.182833	-0.275985	-0.25777	-0.237721	0.724867	0.401913	0	0	0.036532	-0.301606	0.210047	0.82107	1.51162	0	0
2.01	2.64129	1.34025	-0.947733	0.551649	1.80796	0.932146	0.175672	0.0552551	-0.255453	0.602762	-0.218856	0	0	-0.366003	-0.260928	-0.270351	0.790481	-0.351545	0	0	-0.248131	0.191751	-0.178265	-0.28065	-0.256822	-0.240832	0.731238	0.402531	0	0	0.0295719	-0.301086	0.214813	0.814641	1.50806	0	0
2.02	2.63045	1.33439	-0.940017	0.553497	1.81886	0.933174	0.157043	0.0643732	-0.261052	0.602405	-0.209155	0	0	-0.339861	-0.270876	-0.251949	0.855415	-0.362517	0	0	-0.251714	0.196704	-0.173594	-0.285425	-0.256038	-0.243167	0.737976	0.403798	0	0	0.0226023	-0.301213	0.219879	0.809564	1.50325	0	0
2.03	2.62085	1.32936	-0.934216	0.555411	1.82956	0.934127	0.138779	0.0729945	-0.264717	0.600423	-0.199239	0	0	-0.312139	-0.279293	-0.23419	0.920555	-0.366158	0	0	-0.25512	0.200717	-0.167913	-0.289583	-0.255021	-0.246155	0.743988	0.405018	0	0	0.0163174	-0.301748	0.225966	0.804321	1.49717	0	0
2.04	2.61635	1.32515	-0.933643	0.557224	1.83993	0.935172	0.120536	0.0803298	-0.266424	0.596581	-0.190598	0	0	-0.283571	-0.285789	-0.218134	0.984453	-0.36773	0	0	-0.25907	0.203118	-0.161889	-0.29195	-0.253741	-0.249886	0.748007	0.405916	0	0	0.0113113	-0.302374	0.232921	0.798056	1.49209	0	0
2.05	2.61887	1.3222	-0.939736	0.558827	1.84996	0.936391	0.102686	0.0853464	-0.268038	0.591227	-0.184347	0	0	-0.25399	-0.28927	-0.202636	1.04558	-0.371674	0	0	-0.263648	0.203175	-0.155773	-0.293546	-0.252812	-0.252137	0.750585	0.407981	0	0	0.00778446	-0.302519	0.239702	0.790666	1.48835	0	0
2.06	2.62719	1.31979	-0.951042	0.560277	1.85968	0.937865	0.084506	0.0888392	-0.269919	0.583682	-0.180923	0	0	-0.224183	-0.290177	-0.187349	1.1028	-0.371763	0	0	-0.269085	0.201456	-0.150071	-0.293859	-0.252345	-0.251999	0.750855	0.411458	0	0	0.00529144	-0.302435	0.245263	0.782805	1.48242	0	0
2.07	2.63935	1.31733	-0.966297	0.56178	1.86935	0.93958	0.0651724	0.091706	-0.270654	0.574245	-0.179455	0	0	-0.195727	-0.289773	-0.175522	1.15379	-0.359064	0	0	-0.274913	0.198188	-0.144648	-0.293163	-0.251992	-0.249728	0.748817	0.415796	0	0	0.00265915	-0.302662	0.250072	0.774739	1.4766	0	0
2.08	2.65235	1.31533	-0.983838	0.563504	1.87921	0.941443	0.0448208	0.0947295	-0.267549	0.562584	-0.178503	0	0	-0.169034	-0.289017	-0.169223	1.19752	-0.334584	0	0	-0.279713	0.193457	-0.138769	-0.291246	-0.251227	-0.246919	0.743967	0.419176	0	0	-0.000983226	-0.302923	0.253639	0.766004	1.47235	0	0
2.09	2.67108	1.31197	-1.00542	0.56504	1.88881	0.943486	0.0211524	0.0971318	-0.26413	0.548441	-0.177937	0	0	-0.144176	-0.287167	-0.162489	1.23626	-0.299811	0	0	-0.286399	0.188357	-0.134502	-0.288149	-0.249884	-0.244707	0.738307	0.421072	0	0	-0.00433919	-0.303925	0.257197	0.758121	1.46848	0	0
2.1	2.69542	1.30645	-1.03108	0.566371	1.89811	0.945649	-0.00608255	0.0990348	-0.261582	0.533236	-0.177077	0	0	-0.121759	-0.284377	-0.155246	1.27037	-0.265939	0	0	-0.296461	0.183494	-0.131257	-0.285375	-0.248091	-0.243717	0.734901	0.421817	0	0	-0.0076626	-0.305661	0.259902	0.752938	1.46445	0	0
